<?xml version="1.0" encoding="utf-8"?>
<!-- Generator: Adobe Illustrator 25.0.1, SVG Export Plug-In . SVG Version: 6.00 Build 0)  -->
<svg version="1.1" id="图层_1" xmlns="http://www.w3.org/2000/svg" xmlns:xlink="http://www.w3.org/1999/xlink" x="0px" y="0px"
	 viewBox="0 0 80 80" style="enable-background:new 0 0 80 80;" xml:space="preserve">
<style type="text/css">
	.st0{fill:#59B27E;stroke:#59B27E;stroke-miterlimit:10;}
</style>
<path class="st0" d="M3.4,66.8c0-3,1.2-5.8,3.4-8l16.8-16.8l-0.1-0.3c-1.1-2.9-1.5-5.9-1.5-9.1c0-15,12.2-27,27.1-27
	c3.7,0,7.3,0.8,10.7,2.2l1.1,0.5c0,0,0.1,0.1,0.2,0.1c0.2,0.1,0.3,0.2,0.4,0.3c0.2,0.2,0.3,0.5,0.3,0.8s-0.1,0.6-0.3,0.8
	c-0.1,0.1-0.1,0.1-0.1,0.2L45.7,25.8l10.1,10.1l15.8-15.7l0.1-0.1c0.4-0.3,0.9-0.4,1.2,0c0.1,0.1,0.1,0.2,0.2,0.3l0.1,0.2l0.6,1.4
	c1.4,3.5,2.2,7,2.2,10.7c0,15-12.2,27-27.1,27c-3.2,0-6.1-0.6-9.1-1.6h-0.3L22.7,74.8c-4.4,4.4-11.6,4.4-16,0
	C4.6,72.6,3.4,69.9,3.4,66.8L3.4,66.8L3.4,66.8z M9.6,61.8c-1.3,1.3-2.1,3.2-2.1,5c0,1.9,0.8,3.6,2.1,5.1c2.8,2.8,7.3,2.8,10.1,0
	l18.8-18.8l1.3,0.6c2.9,1.2,5.9,1.9,9.1,1.9c12.7,0,22.9-10.3,22.9-22.9c0-1.7-0.2-3.5-0.6-5.2l-0.2-1L56.4,41.1
	c-0.5,0.3-1.1,0.3-1.4-0.1l-0.2-0.3L40.4,26.4c-0.1-0.2-0.2-0.4-0.2-0.6c0-0.2,0.1-0.5,0.2-0.7l14.7-14.6l-1-0.2
	c-1.7-0.4-3.5-0.6-5.2-0.6C36.3,9.8,26,20,26,32.7c0,3.2,0.7,6.2,1.9,9.1l0.6,1.3L9.6,61.8L9.6,61.8z"/>
</svg>
