<?xml version="1.0" encoding="utf-8"?>
<!-- Generator: Adobe Illustrator 25.0.1, SVG Export Plug-In . SVG Version: 6.00 Build 0)  -->
<svg version="1.1" id="图层_1" xmlns="http://www.w3.org/2000/svg" xmlns:xlink="http://www.w3.org/1999/xlink" x="0px" y="0px"
	 viewBox="0 0 80 80" style="enable-background:new 0 0 80 80;" xml:space="preserve">
<style type="text/css">
	.st0{fill:#59B27E;}
</style>
<path class="st0" d="M15.1,10.4c-2.6,0-4.7,2.1-4.7,4.7v54.4c0,2.6,2.1,4.7,4.7,4.7h47.3c2.6,0,4.7-2.1,4.7-4.7V15.2
	c0-2.6-2.1-4.7-4.7-4.7h-7.1l2.4,2.4V9.3c0-1.9-1.6-3.5-3.5-3.5H23.4c-2,0-3.5,1.6-3.5,3.5v3.6l2.4-2.4H15.1z M24.6,15.2v-2.4V9.3
	c0,0.6-0.5,1.2-1.2,1.2h30.7c-0.7,0-1.2-0.5-1.2-1.2v3.6v2.4h2.4h7.1c0,0,0,54.4,0,54.4c0,0-47.3,0-47.3,0c0,0,0-54.4,0-54.4
	c0,0,7.1,0,7.1,0H24.6z M52.9,16.4c0-0.6,0.5-1.2,1.2-1.2H23.4c0.7,0,1.2,0.5,1.2,1.2v-3.6c0-1.3-1.1-2.4-2.4-2.4
	c-1.3,0-2.4,1.1-2.4,2.4v3.6c0,1.9,1.6,3.5,3.5,3.5h30.7c2,0,3.5-1.6,3.5-3.5v-3.6c0-1.3-1.1-2.4-2.4-2.4s-2.4,1.1-2.4,2.4V16.4z
	 M52.9,35.3c1.3,0,2.4-1.1,2.4-2.4c0-1.3-1.1-2.4-2.4-2.4H24.6c-1.3,0-2.4,1.1-2.4,2.4c0,1.3,1.1,2.4,2.4,2.4H52.9z M24.6,42.4
	c-1.3,0-2.4,1.1-2.4,2.4c0,1.3,1.1,2.4,2.4,2.4h28.4c1.3,0,2.4-1.1,2.4-2.4c0-1.3-1.1-2.4-2.4-2.4H24.6z M24.6,54.2
	c-1.3,0-2.4,1.1-2.4,2.4s1.1,2.4,2.4,2.4h18.9c1.3,0,2.4-1.1,2.4-2.4s-1.1-2.4-2.4-2.4H24.6z"/>
</svg>
