<?xml version="1.0" encoding="utf-8"?>
<!-- Generator: Adobe Illustrator 25.0.1, SVG Export Plug-In . SVG Version: 6.00 Build 0)  -->
<svg version="1.1" id="图层_1" xmlns="http://www.w3.org/2000/svg" xmlns:xlink="http://www.w3.org/1999/xlink" x="0px" y="0px"
	 viewBox="0 0 80 80" style="enable-background:new 0 0 80 80;" xml:space="preserve">
<style type="text/css">
	.st0{fill:#59B27E;}
</style>
<path class="st0" d="M3.4,66.3c0-3.1,1.2-6.1,3.5-8.3l17.5-17.5l-0.1-0.3c-1.1-3-1.6-6.2-1.6-9.5c0-15.6,12.7-28.2,28.3-28.2
	c3.9,0,7.6,0.8,11.2,2.3l1.1,0.5c0,0,0.1,0.1,0.2,0.1c0.2,0.1,0.3,0.2,0.4,0.3c0.2,0.2,0.3,0.5,0.3,0.8c0,0.3-0.1,0.6-0.3,0.8
	c-0.1,0.1-0.1,0.1-0.1,0.2L47.5,23.5L58,34l16.5-16.4c0,0,0.1-0.1,0.1-0.1c0.4-0.3,0.9-0.4,1.3,0c0.1,0.1,0.1,0.2,0.2,0.3l0.1,0.2
	l0.6,1.5c1.5,3.6,2.3,7.3,2.3,11.2c0,15.6-12.7,28.2-28.3,28.2c-3.3,0-6.4-0.6-9.5-1.7L41,57.2L23.5,74.7c-4.6,4.6-12.1,4.6-16.7,0
	C4.6,72.4,3.4,69.5,3.4,66.3L3.4,66.3L3.4,66.3z M9.9,61.1c-1.4,1.4-2.2,3.3-2.2,5.2c0,2,0.8,3.8,2.2,5.3c2.9,2.9,7.6,2.9,10.5,0
	L40,52l1.4,0.6c3,1.3,6.2,2,9.5,2c13.2,0,23.9-10.7,23.9-23.9c0-1.8-0.2-3.6-0.6-5.4l-0.2-1L58.7,39.5c-0.5,0.3-1.1,0.3-1.5-0.1
	L57,39.1L42,24.2c-0.1-0.2-0.2-0.4-0.2-0.6c0-0.2,0.1-0.5,0.2-0.7L57.3,7.7l-1-0.2c-1.8-0.4-3.6-0.6-5.4-0.6
	C37.7,6.8,27,17.5,27,30.7c0,3.3,0.7,6.5,2,9.5l0.6,1.4L9.9,61.1L9.9,61.1z"/>
</svg>
