<?xml version="1.0" encoding="utf-8"?>
<!-- Generator: Adobe Illustrator 25.0.1, SVG Export Plug-In . SVG Version: 6.00 Build 0)  -->
<svg version="1.1" id="图层_1" xmlns="http://www.w3.org/2000/svg" xmlns:xlink="http://www.w3.org/1999/xlink" x="0px" y="0px"
	 viewBox="0 0 80 80" style="enable-background:new 0 0 80 80;" xml:space="preserve">
<style type="text/css">
	.st0{fill:#59B27E;stroke:#FFFFFF;stroke-width:0.5;stroke-miterlimit:10;}
</style>
<path class="st0" d="M38.8,31.7c1.3,0,2.4-1.1,2.4-2.4v-5.1h5.2c1.3,0,2.4-1.1,2.4-2.4s-1.1-2.4-2.4-2.4h-5.2v-4.5
	c0-1.3-1.1-2.4-2.4-2.4s-2.4,1.1-2.4,2.4v4.5h-5.2c-1.3,0-2.4,1.1-2.4,2.4s1.1,2.4,2.4,2.4h5.2v5.1C36.3,30.6,37.4,31.7,38.8,31.7z"
	/>
<path class="st0" d="M16.6,30.8c1.3,0,2.4-1.1,2.4-2.4v-8c0-5.2,5.2-11.2,19.7-11.2c9.6,0,19.8,2.9,19.8,11.2v8
	c0,1.3,1.1,2.4,2.4,2.4s2.4-1.1,2.4-2.4v-8c0-7.7-6.5-16-24.7-16C20.5,4.4,14,13,14,20.4v8C14.1,29.8,15.2,30.8,16.6,30.8z"/>
<path class="st0" d="M28.1,52.6L28.1,52.6c-5.7-4.6-8.6-9.8-8.6-15.6c0-1.3-1.1-2.4-2.4-2.4s-2.4,1.1-2.4,2.4
	c0,6.6,2.9,12.7,8.5,17.8c-4.4,4.3-8,8.5-10.9,15.3c-0.5,1.2,0.1,2.6,1.3,3.2c0.3,0.1,0.6,0.2,0.9,0.2c0.9,0,1.8-0.6,2.2-1.5
	c2.9-6.9,6.7-10.8,11.7-15.6c1-0.9,1-2.4,0.1-3.4C28.4,52.9,28.3,52.7,28.1,52.6z"/>
<path class="st0" d="M65.2,70.1c-2.9-6.8-6.5-11-10.9-15.3c5.6-5,8.5-11.1,8.5-17.7c0-1.3-1.1-2.4-2.4-2.4S58,35.8,58,37.1
	c0,7.4-4.8,12.7-8.8,15.7c-1.1,0.8-1.3,2.3-0.4,3.4c0.2,0.2,0.4,0.4,0.6,0.5c4.9,4.6,8.6,8.5,11.5,15.3c0.4,0.9,1.3,1.5,2.2,1.5
	c0.3,0,0.6-0.1,0.9-0.2C65.1,72.7,65.7,71.3,65.2,70.1z"/>
<path class="st0" d="M29.4,30.6c-1.3,0-2.4,1.1-2.4,2.4v2.3c0,1.3,1.1,2.4,2.4,2.4s2.4-1.1,2.4-2.4V33
	C31.8,31.7,30.7,30.6,29.4,30.6z"/>
<path class="st0" d="M48.1,30.6c-1.3,0-2.4,1.1-2.4,2.4v2.3c0,1.3,1.1,2.4,2.4,2.4s2.4-1.1,2.4-2.4V33
	C50.6,31.7,49.5,30.6,48.1,30.6z"/>
<path class="st0" d="M44.7,41.5c-1.1-0.7-2.6-0.4-3.3,0.7c0,0-1,1.5-2.6,1.5c-1.5,0-2.5-1.4-2.6-1.5c-0.7-1.1-2.2-1.5-3.3-0.8
	c-1.1,0.7-1.5,2.2-0.8,3.3c0.9,1.4,3.2,3.7,6.6,3.7c3.4,0,5.8-2.3,6.7-3.7C46.1,43.7,45.8,42.2,44.7,41.5z"/>
</svg>
